<svg xmlns="http://www.w3.org/2000/svg" width="600" height="600" viewBox="0 0 600 600">
<rect width="100%" height="100%" fill="white"/>
<circle cx="300" cy="300" r="260" fill="none" stroke="black" stroke-width="2"/>
<path d="M 304.23,329.28 L 297.87,266.74 L 298.14,328.96 L 279.32,285.67 L 272.59,340.18 L 276.17,265.08 L 304.14,300.00 L 276.18,284.13 L 276.17,265.08 L 304.14,300.00 L 276.18,284.13 L 276.17,265.08 L 304.14,300.00 L 276.18,284.13 L 276.17,265.08 L 304.14,300.00 L 276.18,284.13 L 276.17,265.08 L 304.14,300.00 L 276.18,284.13 L 276.17,265.08 L 304.14,300.00 L 276.18,284.13 L 276.17,265.08 L 304.14,300.00 L 276.18,284.13 L 276.17,265.08 L 304.14,300.00 L 276.18,284.13 L 276.17,265.08 L 304.14,300.00 L 276.18,284.13 L 276.17,265.08 L 304.14,300.00 L 276.18,284.13 L 276.17,265.08 L 304.14,300.00 L 276.18,284.13 L 276.17,265.08 L 304.14,300.00 L 276.18,284.13 L 276.17,265.08 L 304.14,300.00 L 276.18,284.13 L 276.17,265.08 L 304.14,300.00 L 276.18,284.13 L 276.17,265.08 L 304.14,300.00 L 276.18,284.13 L 276.17,265.08 L 304.14,300.00 L 276.18,284.13 L 276.17,265.08 L 304.14,300.00 L 276.18,284.13 L 276.17,265.08 L 304.14,300.00 L 276.18,284.13 L 276.17,265.08 L 304.14,300.00 L 276.18,284.13 L 276.17,265.08 L 304.14,300.00" fill="none" stroke="#111" stroke-width="1.5" opacity="0.85"/>
<text x="20" y="30" font-size="14" fill="#111">seed 3-5</text>
<path d="M 304.20,300.00 L 297.86,266.57 L 298.13,329.10 L 279.52,285.81 L 276.25,334.81 L 276.49,265.54 L 304.07,300.00 L 276.53,284.37 L 276.48,265.53 L 304.09,300.00 L 273.20,282.15 L 273.35,317.75 L 279.32,285.67 L 272.59,340.18 L 276.17,265.08 L 304.14,300.00 L 276.18,284.13 L 276.17,265.08 L 304.14,300.00 L 276.18,284.13 L 276.17,265.08 L 304.14,300.00 L 276.18,284.13 L 276.17,265.08 L 304.14,300.00 L 276.18,284.13 L 276.17,265.08 L 304.14,300.00 L 276.18,284.13 L 276.17,265.08 L 304.14,300.00 L 276.18,284.13 L 276.17,265.08 L 304.14,300.00 L 276.18,284.13 L 276.17,265.08 L 304.14,300.00 L 276.18,284.13 L 276.17,265.08 L 304.14,300.00 L 276.18,284.13 L 276.17,265.08 L 304.14,300.00 L 276.18,284.13 L 276.17,265.08 L 304.14,300.00 L 276.18,284.13 L 276.17,265.08 L 304.14,300.00 L 276.18,284.13 L 276.17,265.08 L 304.14,300.00 L 276.18,284.13 L 276.17,265.08 L 304.14,300.00 L 276.18,284.13 L 276.17,265.08 L 304.14,300.00 L 276.18,284.13 L 276.17,265.08 L 304.14,300.00 L 276.18,284.13 L 276.17,265.08 L 304.14,300.00" fill="none" stroke="#444" stroke-width="1.5" opacity="0.85"/>
<text x="20" y="50" font-size="14" fill="#444">seed 5-7</text>
<path d="M 304.23,300.00 L 297.85,266.42 L 298.13,329.22 L 279.25,285.63 L 275.98,335.20 L 275.28,263.77 L 304.11,300.00 L 273.04,282.04 L 273.20,317.85 L 304.04,300.00 L 297.92,267.56 L 297.93,332.25 L 282.02,287.54 L 272.66,281.79 L 276.18,315.87 L 282.02,287.54 L 272.66,281.79 L 276.18,315.87 L 282.02,287.54 L 272.66,281.79 L 276.18,315.87 L 282.02,287.54 L 272.66,281.79 L 276.18,315.87 L 282.02,287.54 L 272.66,281.79 L 276.18,315.87 L 282.02,287.54 L 272.66,281.79 L 276.18,315.87 L 282.02,287.54 L 272.66,281.79 L 276.18,315.87 L 282.02,287.54 L 272.66,281.79 L 276.18,315.87 L 282.02,287.54 L 272.66,281.79 L 276.18,315.87 L 282.02,287.54 L 272.66,281.79 L 276.18,315.87 L 282.02,287.54 L 272.66,281.79 L 276.18,315.87 L 282.02,287.54 L 272.66,281.79 L 276.18,315.87 L 282.02,287.54 L 272.66,281.79 L 276.18,315.87 L 282.02,287.54 L 272.66,281.79 L 276.18,315.87 L 282.02,287.54 L 272.66,281.79 L 276.18,315.87 L 282.02,287.54 L 272.66,281.79 L 276.18,315.87 L 282.02,287.54 L 272.66,281.79 L 276.18,315.87 L 282.02,287.54" fill="none" stroke="#777" stroke-width="1.5" opacity="0.85"/>
<text x="20" y="70" font-size="14" fill="#777">seed 11-13</text>
</svg>